<svg width="418" height="266" viewBox="0 0 418 266" fill="none" xmlns="http://www.w3.org/2000/svg">
<path fill-rule="evenodd" clip-rule="evenodd" d="M418 0H0V266H418V0ZM90.96 89.84V182H131.216C137.275 182 142.352 180.848 146.448 178.544C150.587 176.24 153.701 173.04 155.792 168.944C157.883 164.848 158.928 160.069 158.928 154.608C158.928 149.275 157.413 144.517 154.384 140.336C152.179 137.25 149.208 134.942 145.469 133.413C147.653 132.099 149.494 130.332 150.992 128.112C153.424 124.571 154.64 120.261 154.64 115.184C154.64 111.045 153.659 107.035 151.696 103.152C149.776 99.2693 146.811 96.0907 142.8 93.616C138.832 91.0987 133.733 89.84 127.504 89.84H90.96ZM129.296 167.472H106.576V141.04H129.744C132.603 141.04 135.056 141.637 137.104 142.832C139.152 143.984 140.709 145.541 141.776 147.504C142.843 149.467 143.376 151.685 143.376 154.16C143.376 156.891 142.757 159.259 141.52 161.264C140.325 163.227 138.661 164.763 136.528 165.872C134.395 166.939 131.984 167.472 129.296 167.472ZM127.312 126.64H106.576V104.24H127.312C130.981 104.24 133.84 105.307 135.888 107.44C137.936 109.573 138.96 112.24 138.96 115.44C138.96 117.872 138.448 119.92 137.424 121.584C136.4 123.248 135.013 124.507 133.264 125.36C131.515 126.213 129.531 126.64 127.312 126.64ZM195.646 89.84L166.59 182H182.462L188.752 162.032H225.054L231.422 182H247.294L218.238 89.84H195.646ZM220.463 147.632L206.793 104.764L193.288 147.632H220.463ZM260.145 89.84V182H275.569V149.808H297.471L313.073 182H330.545L313.524 147.084C317.648 145.321 320.932 142.709 323.377 139.248C327.174 133.829 329.073 127.365 329.073 119.856C329.073 114.779 328.22 110.171 326.513 106.032C324.849 101.851 322.268 98.3947 318.769 95.664C315.313 92.9333 310.918 91.1627 305.585 90.352C304.39 90.1387 303.089 90.0107 301.681 89.968C300.273 89.8827 299.121 89.84 298.225 89.84H260.145ZM297.585 135.408H275.569V104.304H297.585C298.438 104.304 299.398 104.347 300.465 104.432C301.532 104.475 302.513 104.624 303.409 104.88C305.969 105.52 307.974 106.651 309.425 108.272C310.918 109.893 311.964 111.749 312.561 113.84C313.201 115.888 313.521 117.893 313.521 119.856C313.521 121.819 313.201 123.824 312.561 125.872C311.964 127.92 310.918 129.755 309.425 131.376C307.974 132.997 305.969 134.128 303.409 134.768C302.513 135.024 301.532 135.195 300.465 135.28C299.398 135.365 298.438 135.408 297.585 135.408Z" fill="url(#paint0_linear_3_94)"/>
<defs>
<linearGradient id="paint0_linear_3_94" x1="0" y1="133" x2="418" y2="133" gradientUnits="userSpaceOnUse">
<stop stop-color="#F5F7FA"/>
<stop offset="1" stop-color="#C3CFE2"/>
</linearGradient>
</defs>
</svg>
