<svg width="418" height="266" viewBox="0 0 418 266" fill="none" xmlns="http://www.w3.org/2000/svg">
<path fill-rule="evenodd" clip-rule="evenodd" d="M418 0H0V266H418V0ZM46.96 89.84V182H62.384V143.088H106.032V182H121.392V89.84H106.032V128.624H62.384V89.84H46.96ZM163.271 89.84L134.215 182H150.087L156.377 162.032H192.679L199.047 182H214.919L185.863 89.84H163.271ZM188.088 147.632L174.418 104.764L160.913 147.632H188.088ZM225.21 179.888V182H296.25V167.472H252.154L297.338 92.016V89.84H228.41V104.304H270.65L225.21 179.888ZM313.925 89.84V182H373.445V167.536H329.349V141.488H365.765V127.024H329.349V104.304H373.445V89.84H313.925Z" fill="url(#paint0_linear_3_93)"/>
<defs>
<linearGradient id="paint0_linear_3_93" x1="0" y1="133" x2="418" y2="133" gradientUnits="userSpaceOnUse">
<stop stop-color="#F5F7FA"/>
<stop offset="1" stop-color="#C3CFE2"/>
</linearGradient>
</defs>
</svg>
